<svg width="38" height="32" viewBox="0 0 38 32" fill="none" xmlns="http://www.w3.org/2000/svg">
<rect width="37.5" height="32" rx="8" fill="#00363D" fill-opacity="0.1"/>
<path d="M26.914 16H26.9138C26.6998 16 26.487 15.9566 26.2875 15.8713C26.0878 15.786 25.9043 15.66 25.7483 15.4989C25.5922 15.3378 25.4668 15.1448 25.3807 14.9301C25.2946 14.7155 25.2499 14.4843 25.2499 14.2502V14.25C25.2499 13.2526 26.0239 12.5 26.914 12.5C27.804 12.5 28.578 13.2526 28.578 14.25C28.578 15.2474 27.804 16 26.914 16ZM26.703 20.2C26.703 19.7889 26.6406 19.3979 26.531 19.0291C26.7411 19.0096 26.9347 19 27.1043 19C27.8769 19 28.9609 19.1979 29.8219 19.5817C30.7673 20.0032 30.9999 20.4269 30.9999 20.6665V22H26.703V20.2ZM23.7343 20.2V22H13.625V20.2C13.625 20.0291 13.7014 19.8094 13.9975 19.5316C14.301 19.2468 14.7686 18.9699 15.3624 18.7282C16.5522 18.2437 17.9982 18 18.9218 18C20.0763 18 21.9554 18.3738 23.1817 19.0615C23.5908 19.5219 23.7343 19.9131 23.7343 20.2ZM21.3124 12.5C21.3124 13.9114 20.2129 15 18.9218 15C17.6307 15 16.5312 13.9114 16.5312 12.5C16.5312 11.0886 17.6307 10 18.9218 10C20.2129 10 21.3124 11.0886 21.3124 12.5Z" stroke="#00363D" stroke-width="2"/>
<path d="M11.086 16H11.0862C11.3002 16 11.513 15.9566 11.7125 15.8713C11.9122 15.786 12.0957 15.66 12.2517 15.4989C12.4078 15.3378 12.5332 15.1448 12.6193 14.9301C12.7054 14.7155 12.7501 14.4843 12.7501 14.2502V14.25C12.7501 13.2526 11.9761 12.5 11.086 12.5C10.196 12.5 9.42198 13.2526 9.42198 14.25C9.42198 15.2474 10.196 16 11.086 16ZM11.297 20.2C11.297 19.7889 11.3594 19.3979 11.469 19.0291C11.2589 19.0096 11.0653 19 10.8957 19C10.1231 19 9.0391 19.1979 8.17808 19.5817C7.23267 20.0032 7.00012 20.4269 7.00012 20.6665V22H11.297V20.2ZM14.2657 20.2V22H24.375V20.2C24.375 20.0291 24.2986 19.8094 24.0025 19.5316C23.699 19.2468 23.2314 18.9699 22.6376 18.7282C21.4478 18.2437 20.0018 18 19.0782 18C17.9237 18 16.0446 18.3738 14.8183 19.0615C14.4092 19.5219 14.2657 19.9131 14.2657 20.2ZM16.6876 12.5C16.6876 13.9114 17.7871 15 19.0782 15C20.3693 15 21.4688 13.9114 21.4688 12.5C21.4688 11.0886 20.3693 10 19.0782 10C17.7871 10 16.6876 11.0886 16.6876 12.5Z" stroke="#00363D" stroke-width="2"/>
</svg>
