<svg width="46" height="54" viewBox="0 0 46 54" fill="none" xmlns="http://www.w3.org/2000/svg">
<path d="M40.5 0.75H5.5C2.725 0.75 0.5 3 0.5 5.75V40.75C0.5 43.5 2.725 45.75 5.5 45.75H15.5L23 53.25L30.5 45.75H40.5C43.25 45.75 45.5 43.5 45.5 40.75V5.75C45.5 3 43.25 0.75 40.5 0.75ZM40.5 40.75H28.425L23 46.175L17.575 40.75H5.5V5.75H40.5V40.75ZM23 23.25C27.125 23.25 30.5 19.875 30.5 15.75C30.5 11.625 27.125 8.25 23 8.25C18.875 8.25 15.5 11.625 15.5 15.75C15.5 19.875 18.875 23.25 23 23.25ZM23 13.25C24.375 13.25 25.5 14.375 25.5 15.75C25.5 17.125 24.375 18.25 23 18.25C21.625 18.25 20.5 17.125 20.5 15.75C20.5 14.375 21.625 13.25 23 13.25ZM38 34.7C38 28.45 28.075 25.75 23 25.75C17.925 25.75 8 28.45 8 34.7V38.25H38V34.7ZM14.2 33.25C16.05 31.975 19.775 30.75 23 30.75C26.225 30.75 29.95 31.975 31.8 33.25H14.2Z" fill="#006874"/>
</svg>
