<svg width="50" height="50" viewBox="0 0 50 50" fill="none" xmlns="http://www.w3.org/2000/svg">
<path d="M25 0C11.2 0 0 11.2 0 25C0 38.8 11.2 50 25 50C38.8 50 50 38.8 50 25C50 11.2 38.8 0 25 0ZM5 25C5 23.475 5.2 21.975 5.525 20.55L17.475 32.5V35C17.475 37.75 19.725 40 22.475 40V44.825C12.65 43.575 5 35.175 5 25ZM39.725 38.5C39.075 36.475 37.225 35 34.975 35H32.475V27.5C32.475 26.125 31.35 25 29.975 25H14.975V20H19.975C21.35 20 22.475 18.875 22.475 17.5V12.5H27.475C30.225 12.5 32.475 10.25 32.475 7.5V6.475C39.8 9.425 45 16.625 45 25C45 30.2 42.975 34.95 39.725 38.5Z" fill="#006874"/>
</svg>
