<svg width="38" height="32" viewBox="0 0 38 32" fill="none" xmlns="http://www.w3.org/2000/svg">
<rect width="37.5" height="32" rx="8" fill="#FF3D00" fill-opacity="0.1"/>
<path d="M13.5 21.75C13.5 21.3957 13.6291 21.0336 13.9287 20.6597L14.572 21.0509L14.3757 20.2024C14.9249 19.7277 15.6992 19.295 16.6197 18.927C18.5816 18.1425 20.9553 17.75 22.5 17.75C24.0447 17.75 26.4184 18.1425 28.3803 18.927C29.3605 19.3189 30.1749 19.7841 30.7283 20.2953C31.2745 20.7999 31.5 21.2818 31.5 21.75V24.5H13.5V21.75ZM9.99178 12.048L10.4657 13.1751L10.6997 13.7317L11.3013 13.7838L12.5356 13.8906L11.6003 14.6898L11.1389 15.0841L11.2757 15.6754L11.553 16.8741L10.5196 16.2456L10.0052 15.9328L9.48803 16.241L8.40646 16.8856L8.69695 15.6852L8.8406 15.0916L8.37808 14.6927L7.44792 13.8906L8.67428 13.7837L9.27109 13.7317L9.50683 13.181L9.99178 12.048ZM25.3284 7.67157L26.0355 6.96447L25.3284 7.67157C26.0786 8.42172 26.5 9.43913 26.5 10.5C26.5 11.5609 26.0786 12.5783 25.3284 13.3284L26.0355 14.0355L25.3284 13.3284C24.5783 14.0786 23.5609 14.5 22.5 14.5C21.4391 14.5 20.4217 14.0786 19.6716 13.3284C18.9214 12.5783 18.5 11.5609 18.5 10.5C18.5 9.43913 18.9214 8.42172 19.6716 7.67157C20.4217 6.92143 21.4391 6.5 22.5 6.5C23.5609 6.5 24.5783 6.92143 25.3284 7.67157Z" stroke="#DE3730" stroke-width="2"/>
</svg>
