<svg width="38" height="32" viewBox="0 0 38 32" fill="none" xmlns="http://www.w3.org/2000/svg">
<rect width="37.3333" height="32" rx="4" fill="#9747FF" fill-opacity="0.2"/>
<path d="M18.6669 5.57129C19.9172 5.57129 21.1163 6.06797 22.0004 6.95207C22.8845 7.83617 23.3811 9.03527 23.3811 10.2856C23.3811 11.5359 22.8845 12.735 22.0004 13.6191C21.1163 14.5032 19.9172 14.9999 18.6669 14.9999C17.4165 14.9999 16.2174 14.5032 15.3333 13.6191C14.4492 12.735 13.9526 11.5359 13.9526 10.2856C13.9526 9.03527 14.4492 7.83617 15.3333 6.95207C16.2174 6.06797 17.4165 5.57129 18.6669 5.57129ZM18.6669 18.4284C20.4499 18.4284 23.1808 18.8803 25.4402 19.7837C26.5692 20.2352 27.5175 20.7747 28.1675 21.3752C28.8104 21.9691 29.0954 22.5554 29.0954 23.1427V26.4284H8.23828V23.1427C8.23828 22.5554 8.52331 21.9691 9.16618 21.3752C9.81624 20.7747 10.7645 20.2352 11.8935 19.7837C14.1529 18.8803 16.8838 18.4284 18.6669 18.4284Z" stroke="#3B4665" stroke-width="2"/>
</svg>
