<svg width="48" height="48" viewBox="0 0 48 48" fill="none" xmlns="http://www.w3.org/2000/svg">
<path d="M43.611 20.083H42V20H24V28H35.303C33.654 32.657 29.223 36 24 36C17.373 36 12 30.627 12 24C12 17.373 17.373 12 24 12C27.059 12 29.842 13.154 31.961 15.039L37.618 9.382C34.046 6.053 29.268 4 24 4C12.955 4 4 12.955 4 24C4 35.045 12.955 44 24 44C35.045 44 44 35.045 44 24C44 22.659 43.862 21.35 43.611 20.083Z" fill="#FFC107"/>
<path d="M6 15.0288L12.5055 20C14.2658 15.4589 18.5289 12.2527 23.5177 12.2527C26.5462 12.2527 29.3015 13.4432 31.3994 15.3877L37 9.55203C33.4636 6.11786 28.7332 4 23.5177 4C15.9122 4 9.31662 8.47402 6 15.0288Z" fill="#FF3D00"/>
<path d="M23.6829 44C28.8135 44 33.4753 42.0163 37 38.7904L30.8524 33.5347C28.7912 35.1184 26.2725 35.975 23.6829 35.9729C18.5166 35.9729 14.1299 32.6447 12.4773 28L6 33.042C9.28731 39.5409 15.9632 44 23.6829 44Z" fill="#4CAF50"/>
<path d="M43.611 20.0838H42V20H24V28.073H35.303C34.5142 30.3096 33.0934 32.264 31.216 33.6948L31.219 33.6928L37.409 38.9786C36.971 39.3802 44 34.1277 44 24.0365C44 22.6833 43.862 21.3623 43.611 20.0838Z" fill="#1976D2"/>
</svg>
