<svg width="225" height="202" viewBox="0 0 225 202" fill="none" xmlns="http://www.w3.org/2000/svg">
<path d="M194.148 22.5719C190.381 20.517 188.673 22.2284 187.303 20.517C185.932 18.8055 191.069 14.3639 180.778 9.92231C180.778 9.92231 180.095 0.352194 166.055 0.00871204C152.014 -0.33477 155.798 9.57883 152.031 11.9714C148.265 14.3639 147.238 10.627 143.472 12.9959C139.705 15.3647 141.419 20.1735 138.341 20.8545C135.262 21.5356 131.145 17.7809 127.378 20.1735C123.612 22.566 123.612 24.6151 121.903 24.6151C120.195 24.6151 116.766 23.247 114.714 24.6151C112.661 25.9831 110.259 27.6945 110.259 27.6945H196.865C196.865 27.6945 197.915 24.621 194.148 22.5719Z" fill="#006874"/>
<path opacity="0.5" d="M194.148 22.5719C190.381 20.517 188.673 22.2284 187.303 20.517C185.932 18.8055 191.069 14.3639 180.778 9.92231C180.778 9.92231 180.095 0.352194 166.055 0.00871204C152.014 -0.33477 155.798 9.57883 152.031 11.9714C148.265 14.3639 147.238 10.627 143.472 12.9959C139.705 15.3647 141.419 20.1735 138.341 20.8545C135.262 21.5356 131.145 17.7809 127.378 20.1735C123.612 22.566 123.612 24.6151 121.903 24.6151C120.195 24.6151 116.766 23.247 114.714 24.6151C112.661 25.9831 110.259 27.6945 110.259 27.6945H196.865C196.865 27.6945 197.915 24.621 194.148 22.5719Z" fill="white"/>
<path d="M95.9337 99.3987C93.2881 97.9596 92.0839 99.1559 91.1229 97.9596C90.1619 96.7633 93.7686 93.6365 86.5553 90.5155C86.5553 90.5155 86.0749 83.7939 76.2101 83.5511C66.3453 83.3083 68.9968 90.2727 66.3512 91.9546C63.7055 93.6365 62.9878 90.9952 60.3421 92.6771C57.6965 94.359 58.8947 97.7168 56.7355 98.1965C54.5763 98.6762 51.6815 96.0349 49.024 97.7168C46.3665 99.3987 46.3784 100.838 45.1801 100.838C43.9819 100.838 41.5676 99.8784 40.1261 100.838C38.6847 101.797 37 102.999 37 102.999H97.8557C97.8557 102.999 98.5794 100.838 95.9337 99.3987Z" fill="white"/>
<path opacity="0.5" d="M95.9337 99.3987C93.2881 97.9596 92.0839 99.1559 91.1229 97.9596C90.1619 96.7633 93.7686 93.6365 86.5553 90.5155C86.5553 90.5155 86.0749 83.7939 76.2101 83.5511C66.3453 83.3083 68.9968 90.2727 66.3512 91.9546C63.7055 93.6365 62.9878 90.9952 60.3421 92.6771C57.6965 94.359 58.8947 97.7168 56.7355 98.1965C54.5763 98.6762 51.6815 96.0349 49.024 97.7168C46.3665 99.3987 46.3784 100.838 45.1801 100.838C43.9819 100.838 41.5676 99.8784 40.1261 100.838C38.6847 101.797 37 102.999 37 102.999H97.8557C97.8557 102.999 98.5794 100.838 95.9337 99.3987Z" fill="white"/>
<path d="M170.367 200H208C207.28 195.413 204.32 196.22 203.927 189.112C203.731 185.552 207.059 181.101 206.768 176.402C206.529 172.527 202.701 168.558 202.403 164.125C202.135 160.126 205.38 155.688 205.088 151.38C204.785 147.309 200.92 143.399 200.557 139.163C200.223 135.009 203.427 130.553 203.046 126.376C202.665 122.198 198.717 118.359 198.282 114.241C197.848 110.011 200.95 105.454 200.474 101.407C199.973 97.105 195.9 93.3906 195.347 89.4269C194.751 85.0182 197.615 80.3069 196.942 76.4975C196.115 71.8337 191.756 68.4575 190.839 65.016C189.13 58.6017 189.344 52.4248 187.326 52.0213C185.176 51.5941 184.682 57.6523 183.05 64.4226C182.229 67.8226 177.971 71.27 177.268 75.9398C176.703 79.7195 179.716 84.318 179.222 88.7089C178.781 92.6429 174.809 96.4226 174.422 100.701C174.059 104.724 177.28 109.156 176.965 113.363C176.655 117.451 172.797 121.35 172.541 125.503C172.284 129.657 175.595 134 175.369 138.1C175.137 142.301 171.356 146.271 171.159 150.312C170.957 154.59 174.345 158.904 174.178 162.867C173.993 167.264 170.266 171.287 170.129 175.132C169.962 179.796 173.398 184.098 173.291 187.652C173.065 195.366 169.522 193.758 169.396 199.964L170.367 200Z" fill="#006874"/>
<path d="M186.521 64.3462V198.268" stroke="black" stroke-miterlimit="10"/>
<path d="M192.399 78.3841L186.272 83.6591L181.258 76.9956" stroke="black" stroke-miterlimit="10"/>
<path d="M192.399 101.698L186.272 106.967L181.258 100.31" stroke="black" stroke-miterlimit="10"/>
<path d="M192.399 123.616L186.272 128.891L181.258 122.227" stroke="black" stroke-miterlimit="10"/>
<path d="M192.399 149.706L186.272 154.975L181.258 148.318" stroke="black" stroke-miterlimit="10"/>
<path d="M192.399 176.071L186.272 181.34L181.258 174.683" stroke="black" stroke-miterlimit="10"/>
<path d="M144.732 200.001H173.785C173.225 196.44 170.945 197.081 170.641 191.598C170.486 188.833 173.052 185.416 172.832 181.784C172.648 178.817 169.694 175.726 169.462 172.29C169.253 169.205 171.778 165.763 171.534 162.453C171.302 159.308 168.307 156.293 168.039 153.024C167.771 149.755 170.254 146.372 169.962 143.15C169.67 139.928 166.616 136.962 166.294 133.787C165.961 130.518 168.354 127.005 167.985 123.872C167.598 120.555 164.454 117.689 164.031 114.633C163.555 111.228 165.782 107.59 165.258 104.653C164.621 101.051 161.256 98.4406 160.554 95.7883C159.232 90.8396 159.399 86.063 157.838 85.7545C156.177 85.4222 155.796 90.0979 154.54 95.3314C153.908 97.954 150.616 100.618 150.074 104.232C149.639 107.151 151.961 110.699 151.58 114.088C151.241 117.126 148.18 120.021 147.876 123.344C147.597 126.447 150.086 129.871 149.841 133.117C149.603 136.273 146.632 139.282 146.424 142.486C146.215 145.69 148.805 149.048 148.609 152.211C148.412 155.374 145.512 158.519 145.364 161.64C145.203 164.939 147.817 168.267 147.692 171.329C147.549 174.723 144.673 177.856 144.566 180.823C144.435 184.419 147.09 187.748 147.007 190.483C146.828 196.417 144.095 195.2 144 199.977L144.732 200.001Z" fill="#006874"/>
<path d="M157.207 95.2891V198.665" stroke="black" stroke-miterlimit="10"/>
<path d="M161.739 106.124L157.011 110.194L153.141 105.05" stroke="black" stroke-miterlimit="10"/>
<path d="M161.739 124.114L157.011 128.185L153.141 123.046" stroke="black" stroke-miterlimit="10"/>
<path d="M161.739 141.039L157.011 145.109L153.141 139.971" stroke="black" stroke-miterlimit="10"/>
<path d="M161.739 161.177L157.011 165.247L153.141 160.103" stroke="black" stroke-miterlimit="10"/>
<path d="M161.739 181.53L157.011 185.594L153.141 180.456" stroke="black" stroke-miterlimit="10"/>
<path d="M119.642 200V79.9702H125.98V200" fill="#2E3132"/>
<path d="M119.642 200V79.9702H125.98V200" stroke="#2E3132" stroke-linecap="round" stroke-linejoin="round"/>
<path d="M116.476 200V79.9702H122.814V200" fill="#006874"/>
<path d="M116.476 200V79.9702H122.814V200" stroke="#2E3132" stroke-linecap="round" stroke-linejoin="round"/>
<g style="mix-blend-mode:multiply" opacity="0.3">
<path d="M122.814 79.9702H116.476V94.2185H122.814V79.9702Z" fill="#2E3132"/>
</g>
<path d="M143.523 33.1123H96.5566L117.028 83.3613H164V53.5705C164 50.8834 163.471 48.2226 162.441 45.7401C161.412 43.2576 159.904 41.0021 158.002 39.1023C156.101 37.2025 153.843 35.6957 151.359 34.6679C148.874 33.6401 146.212 33.1115 143.523 33.1123Z" fill="#006874" stroke="#2E3132" stroke-linecap="round" stroke-linejoin="round"/>
<g style="mix-blend-mode:multiply" opacity="0.3">
<path d="M113.445 74.5618L117.01 83.3601H164V53.5693C164 53.1181 164 52.6669 163.952 52.2217H113.457L113.445 74.5618Z" fill="black"/>
</g>
<path d="M143.178 52.2217H138.235" stroke="#2E3132" stroke-linecap="round" stroke-linejoin="round"/>
<path d="M163.953 52.2217H148.994" stroke="#2E3132" stroke-linecap="round" stroke-linejoin="round"/>
<path d="M96.5573 33.1123C101.988 33.1123 107.197 35.2683 111.037 39.1061C114.877 42.9439 117.035 48.149 117.035 53.5764V83.3672H76.0801V53.5705C76.0817 48.1441 78.2398 42.9405 82.0798 39.104C85.9199 35.2675 91.1274 33.1123 96.5573 33.1123Z" fill="#2E3132" stroke="#2E3132" stroke-linecap="round" stroke-linejoin="round"/>
<path d="M117.027 79.9702H81.7402V83.3601H117.027V79.9702Z" fill="#006874" stroke="#2E3132" stroke-linecap="round" stroke-linejoin="round"/>
<path d="M117.028 79.9702H44V83.3601H117.028V79.9702Z" fill="#006874" stroke="#2E3132" stroke-linecap="round" stroke-linejoin="round"/>
<path opacity="0.3" d="M117.027 79.9702H81.7402V83.3601H117.027V79.9702Z" fill="black"/>
<path d="M146.576 21H131.921V31.2884H146.576V21Z" fill="#2E3132" stroke="#2E3132" stroke-linecap="round" stroke-linejoin="round"/>
<path d="M133.109 21H129.942V53.0586H133.109V21Z" fill="white" stroke="#2E3132" stroke-linecap="round" stroke-linejoin="round"/>
<path d="M131.522 57.4108C133.491 57.4108 135.087 55.816 135.087 53.8487C135.087 51.8814 133.491 50.2866 131.522 50.2866C129.554 50.2866 127.958 51.8814 127.958 53.8487C127.958 55.816 129.554 57.4108 131.522 57.4108Z" fill="#2E3132" stroke="#2E3132" stroke-linecap="round" stroke-linejoin="round"/>
<path d="M79.043 41.3789C87.2903 45.5578 101.628 52.2548 114.853 55.6239" stroke="white" stroke-linecap="round" stroke-linejoin="round" stroke-dasharray="2 4"/>
<path d="M72.123 37.7417C72.123 37.7417 74.7655 39.2312 79.0433 41.4005" stroke="#2E3132" stroke-linecap="round" stroke-linejoin="round" stroke-dasharray="2 4"/>
<path d="M69.1538 37.5239L75.0846 23.468L32.0762 13L69.1538 37.5239Z" fill="white" stroke="#2E3132" stroke-width="1.2629" stroke-linecap="round" stroke-linejoin="round"/>
<path d="M72.0451 25.1703L69.1538 37.5239L32.0762 13L72.0451 25.1703Z" fill="#006874" stroke="#2E3132" stroke-width="1.2629" stroke-linecap="round" stroke-linejoin="round"/>
<path d="M72.0451 25.1703L65.2968 30.9393L32.0762 13L72.0451 25.1703Z" fill="white" stroke="#2E3132" stroke-width="1.2629" stroke-linecap="round" stroke-linejoin="round"/>
<path d="M75.0846 23.468L81.0924 21.0328L32.0762 13L75.0846 23.468Z" fill="white" stroke="#2E3132" stroke-width="1.2629" stroke-linecap="round" stroke-linejoin="round"/>
<path d="M60.8008 35.3379L62.1931 36.189" stroke="#2E3132" stroke-linecap="round" stroke-linejoin="round"/>
<path d="M53.2051 30.6914L57.8679 33.5404" stroke="#2E3132" stroke-linecap="round" stroke-linejoin="round"/>
<path d="M47.9668 64.431V49.187L91.6803 56.1972L47.9668 64.431Z" fill="white" stroke="#2E3132" stroke-width="1.2629" stroke-linecap="round" stroke-linejoin="round"/>
<path d="M50.1057 51.9282L47.9668 64.4296L91.6803 56.1958L50.1057 51.9282Z" fill="#006874" stroke="#2E3132" stroke-width="1.2629" stroke-linecap="round" stroke-linejoin="round"/>
<path d="M50.1055 51.9282L54.081 59.8546L91.6801 56.1958L50.1055 51.9282Z" fill="white" stroke="#2E3132" stroke-width="1.2629" stroke-linecap="round" stroke-linejoin="round"/>
<path d="M47.9667 49.1858L43.3809 44.6108L91.6802 56.196L47.9667 49.1858Z" fill="white" stroke="#2E3132" stroke-width="1.2629" stroke-linecap="round" stroke-linejoin="round"/>
<path d="M63.6211 64.1458L67.413 63.3774" stroke="#2E3132" stroke-linecap="round" stroke-linejoin="round"/>
<path d="M50.3008 66.8474L59.8338 64.9146" stroke="#2E3132" stroke-linecap="round" stroke-linejoin="round"/>
<path d="M42.6999 63.4907C42.6999 63.4907 8.33581 69.4015 1.81849 100.138C-4.69884 130.874 29.6652 132.647 35.5901 117.87C41.5149 103.093 15.4456 97.1823 9.52078 111.368C3.59594 125.554 21.3705 149.788 45.6623 150.971C65.8482 151.952 122.442 128.444 157.642 122.504C157.642 122.504 183.711 115.305 224 116.883" stroke="#2E3132" stroke-linecap="round" stroke-linejoin="round" stroke-dasharray="2 4"/>
<path d="M212.116 160.452H222" stroke="#2E3132" stroke-linecap="round" stroke-linejoin="round"/>
<path d="M212.116 175.155H222" stroke="#2E3132" stroke-linecap="round" stroke-linejoin="round"/>
<path d="M4 174.763H210.93V160.845H4" fill="white"/>
<path d="M4 174.763H210.93V160.845H4" stroke="#2E3132" stroke-linecap="round" stroke-linejoin="round"/>
<path d="M18.3848 200.403V130.385C18.3849 130.213 18.4196 130.043 18.4869 129.885C18.5541 129.728 18.6525 129.585 18.7761 129.467L24.1836 124.344C24.4271 124.115 24.7507 123.992 25.0839 124.003C25.4171 124.013 25.7329 124.155 25.9623 124.398L30.7057 129.473C30.9209 129.709 31.0413 130.017 31.0437 130.337V200.403" fill="#2E3132"/>
<path d="M18.3848 200.403V130.385C18.3849 130.213 18.4196 130.043 18.4869 129.885C18.5541 129.728 18.6525 129.585 18.7761 129.467L24.1836 124.344C24.4271 124.115 24.7507 123.992 25.0839 124.003C25.4171 124.013 25.7329 124.155 25.9623 124.398L30.7057 129.473C30.9209 129.709 31.0413 130.017 31.0437 130.337V200.403" stroke="#2E3132" stroke-linecap="round" stroke-linejoin="round"/>
<path d="M16.8496 201V130.385C16.8494 130.213 16.8846 130.043 16.953 129.885C17.0213 129.727 17.1214 129.584 17.2469 129.467L22.6543 124.345C22.7745 124.231 22.916 124.142 23.0705 124.082C23.225 124.023 23.3896 123.996 23.5548 124.001C23.72 124.006 23.8826 124.043 24.0333 124.112C24.1841 124.18 24.3199 124.277 24.4331 124.398L29.1765 129.473C29.3942 129.708 29.515 130.017 29.5144 130.338V201" fill="white"/>
<path d="M16.8496 201V130.385C16.8494 130.213 16.8846 130.043 16.953 129.885C17.0213 129.727 17.1214 129.584 17.2469 129.467L22.6543 124.345C22.7745 124.231 22.916 124.142 23.0705 124.082C23.225 124.023 23.3896 123.996 23.5548 124.001C23.72 124.006 23.8826 124.043 24.0333 124.112C24.1841 124.18 24.3199 124.277 24.4331 124.398L29.1765 129.473C29.3942 129.708 29.515 130.017 29.5144 130.338V201" stroke="#2E3132" stroke-linecap="round" stroke-linejoin="round"/>
<path d="M63.9805 200.404V130.385C63.9806 130.214 64.0153 130.044 64.0826 129.886C64.1498 129.728 64.2482 129.586 64.3718 129.467L69.7852 124.345C69.9054 124.231 70.0468 124.142 70.2013 124.082C70.3558 124.023 70.5204 123.996 70.6856 124.001C70.8509 124.006 71.0135 124.043 71.1642 124.112C71.3149 124.18 71.4508 124.277 71.564 124.398L76.3073 129.473C76.525 129.708 76.6459 130.017 76.6453 130.338V200.404" fill="#2E3132"/>
<path d="M63.9805 200.404V130.385C63.9806 130.214 64.0153 130.044 64.0826 129.886C64.1498 129.728 64.2482 129.586 64.3718 129.467L69.7852 124.345C69.9054 124.231 70.0468 124.142 70.2013 124.082C70.3558 124.023 70.5204 123.996 70.6856 124.001C70.8509 124.006 71.0135 124.043 71.1642 124.112C71.3149 124.18 71.4508 124.277 71.564 124.398L76.3073 129.473C76.525 129.708 76.6459 130.017 76.6453 130.338V200.404" stroke="#2E3132" stroke-linecap="round" stroke-linejoin="round"/>
<path d="M62.6992 200.999V130.385C62.699 130.213 62.7342 130.042 62.8026 129.884C62.8709 129.726 62.971 129.584 63.0965 129.467L68.5039 124.344C68.7474 124.115 69.0711 123.992 69.4043 124.003C69.7375 124.013 70.0533 124.155 70.2827 124.398L75.0261 129.473C75.2454 129.707 75.3683 130.016 75.37 130.337V200.999" fill="white"/>
<path d="M62.6992 200.999V130.385C62.699 130.213 62.7342 130.042 62.8026 129.884C62.8709 129.726 62.971 129.584 63.0965 129.467L68.5039 124.344C68.7474 124.115 69.0711 123.992 69.4043 124.003C69.7375 124.013 70.0533 124.155 70.2827 124.398L75.0261 129.473C75.2454 129.707 75.3683 130.016 75.37 130.337V200.999" stroke="#2E3132" stroke-linecap="round" stroke-linejoin="round"/>
<path d="M109.831 200.403V130.385C109.831 130.213 109.866 130.042 109.934 129.884C110.003 129.726 110.103 129.584 110.228 129.467L115.636 124.344C115.879 124.115 116.203 123.992 116.536 124.003C116.869 124.013 117.185 124.155 117.415 124.398L122.158 129.473C122.377 129.707 122.5 130.016 122.502 130.337V200.999" fill="#2E3132"/>
<path d="M109.831 200.403V130.385C109.831 130.213 109.866 130.042 109.934 129.884C110.003 129.726 110.103 129.584 110.228 129.467L115.636 124.344C115.879 124.115 116.203 123.992 116.536 124.003C116.869 124.013 117.185 124.155 117.415 124.398L122.158 129.473C122.377 129.707 122.5 130.016 122.502 130.337V200.999" stroke="#2E3132" stroke-linecap="round" stroke-linejoin="round"/>
<path d="M108.556 201V130.385C108.556 130.214 108.591 130.044 108.658 129.886C108.725 129.728 108.823 129.586 108.947 129.467L114.36 124.345C114.481 124.231 114.622 124.142 114.777 124.082C114.931 124.023 115.096 123.996 115.261 124.001C115.426 124.006 115.589 124.043 115.739 124.112C115.89 124.18 116.026 124.277 116.139 124.398L120.883 129.473C121.1 129.708 121.221 130.017 121.221 130.338V201" fill="white"/>
<path d="M108.556 201V130.385C108.556 130.214 108.591 130.044 108.658 129.886C108.725 129.728 108.823 129.586 108.947 129.467L114.36 124.345C114.481 124.231 114.622 124.142 114.777 124.082C114.931 124.023 115.096 123.996 115.261 124.001C115.426 124.006 115.589 124.043 115.739 124.112C115.89 124.18 116.026 124.277 116.139 124.398L120.883 129.473C121.1 129.708 121.221 130.017 121.221 130.338V201" stroke="#2E3132" stroke-linecap="round" stroke-linejoin="round"/>
<path d="M155.688 200.403V130.385C155.688 130.213 155.722 130.043 155.79 129.885C155.857 129.728 155.955 129.585 156.079 129.467L161.486 124.344C161.73 124.115 162.053 123.992 162.387 124.003C162.72 124.013 163.036 124.155 163.265 124.398L168.008 129.473C168.224 129.709 168.344 130.017 168.346 130.337V200.403" fill="#2E3132"/>
<path d="M155.688 200.403V130.385C155.688 130.213 155.722 130.043 155.79 129.885C155.857 129.728 155.955 129.585 156.079 129.467L161.486 124.344C161.73 124.115 162.053 123.992 162.387 124.003C162.72 124.013 163.036 124.155 163.265 124.398L168.008 129.473C168.224 129.709 168.344 130.017 168.346 130.337V200.403" stroke="#2E3132" stroke-linecap="round" stroke-linejoin="round"/>
<path d="M154.406 201V130.385C154.406 130.213 154.441 130.043 154.51 129.885C154.578 129.727 154.678 129.584 154.804 129.467L160.211 124.345C160.331 124.231 160.473 124.142 160.627 124.082C160.782 124.023 160.946 123.996 161.111 124.001C161.277 124.006 161.439 124.043 161.59 124.112C161.741 124.18 161.877 124.277 161.99 124.398L166.733 129.473C166.951 129.708 167.072 130.017 167.071 130.338V201" fill="white"/>
<path d="M154.406 201V130.385C154.406 130.213 154.441 130.043 154.51 129.885C154.578 129.727 154.678 129.584 154.804 129.467L160.211 124.345C160.331 124.231 160.473 124.142 160.627 124.082C160.782 124.023 160.946 123.996 161.111 124.001C161.277 124.006 161.439 124.043 161.59 124.112C161.741 124.18 161.877 124.277 161.99 124.398L166.733 129.473C166.951 129.708 167.072 130.017 167.071 130.338V201" stroke="#2E3132" stroke-linecap="round" stroke-linejoin="round"/>
<path d="M201.538 200.404V130.385C201.538 130.214 201.573 130.044 201.64 129.886C201.707 129.728 201.806 129.586 201.929 129.467L207.343 124.345C207.463 124.231 207.604 124.142 207.759 124.082C207.913 124.023 208.078 123.996 208.243 124.001C208.408 124.006 208.571 124.043 208.722 124.112C208.873 124.18 209.008 124.277 209.122 124.398L213.865 129.473C214.083 129.708 214.203 130.017 214.203 130.338V200.404" fill="#2E3132"/>
<path d="M201.538 200.404V130.385C201.538 130.214 201.573 130.044 201.64 129.886C201.707 129.728 201.806 129.586 201.929 129.467L207.343 124.345C207.463 124.231 207.604 124.142 207.759 124.082C207.913 124.023 208.078 123.996 208.243 124.001C208.408 124.006 208.571 124.043 208.722 124.112C208.873 124.18 209.008 124.277 209.122 124.398L213.865 129.473C214.083 129.708 214.203 130.017 214.203 130.338V200.404" stroke="#2E3132" stroke-linecap="round" stroke-linejoin="round"/>
<path d="M200.258 200.999V130.385C200.258 130.213 200.293 130.042 200.361 129.884C200.43 129.726 200.53 129.584 200.655 129.467L206.063 124.344C206.306 124.115 206.63 123.992 206.963 124.003C207.296 124.013 207.612 124.155 207.841 124.398L212.585 129.473C212.804 129.707 212.927 130.016 212.929 130.337V200.999" fill="white"/>
<path d="M200.258 200.999V130.385C200.258 130.213 200.293 130.042 200.361 129.884C200.43 129.726 200.53 129.584 200.655 129.467L206.063 124.344C206.306 124.115 206.63 123.992 206.963 124.003C207.296 124.013 207.612 124.155 207.841 124.398L212.585 129.473C212.804 129.707 212.927 130.016 212.929 130.337V200.999" stroke="#2E3132" stroke-linecap="round" stroke-linejoin="round"/>
<path d="M24.4258 124.399V129.503" stroke="#2E3132" stroke-linecap="round" stroke-linejoin="round"/>
<path d="M26.459 127.035V139.116" stroke="#2E3132" stroke-linecap="round" stroke-linejoin="round"/>
<path d="M65.1953 128.023V143.306" stroke="#2E3132" stroke-linecap="round" stroke-linejoin="round"/>
<path d="M67.1582 126.05V132.705" stroke="#2E3132" stroke-linecap="round" stroke-linejoin="round"/>
<path d="M114.361 124.346V139.367" stroke="#2E3132" stroke-linecap="round" stroke-linejoin="round"/>
<path d="M117.177 125.555V147.749" stroke="#2E3132" stroke-linecap="round" stroke-linejoin="round"/>
<path d="M156.648 128.023V144.785" stroke="#2E3132" stroke-linecap="round" stroke-linejoin="round"/>
<path d="M163.022 126.05V130.242" stroke="#2E3132" stroke-linecap="round" stroke-linejoin="round"/>
<path d="M204.455 125.798V134.677" stroke="#2E3132" stroke-linecap="round" stroke-linejoin="round"/>
<path d="M209.851 126.789V152.43" stroke="#2E3132" stroke-linecap="round" stroke-linejoin="round"/>
<path d="M200.044 164.269H194.648" stroke="#2E3132" stroke-linecap="round" stroke-linejoin="round"/>
<path d="M200.044 168.459H181.165" stroke="#2E3132" stroke-linecap="round" stroke-linejoin="round"/>
<path d="M129.676 168.459H121.097" stroke="#2E3132" stroke-linecap="round" stroke-linejoin="round"/>
<path d="M84.5659 168.459H75.9863" stroke="#2E3132" stroke-linecap="round" stroke-linejoin="round"/>
<path d="M16.6538 166.242H8.07422" stroke="#2E3132" stroke-linecap="round" stroke-linejoin="round"/>
<path d="M16.6537 170.183H13.2207" stroke="#2E3132" stroke-linecap="round" stroke-linejoin="round"/>
<path d="M125.265 166.242H121.097" stroke="#2E3132" stroke-linecap="round" stroke-linejoin="round"/>
<path d="M79.6624 170.922H75.4941" stroke="#2E3132" stroke-linecap="round" stroke-linejoin="round"/>
<path d="M62.2542 170.922H58.0859" stroke="#2E3132" stroke-linecap="round" stroke-linejoin="round"/>
<path d="M216.711 168.459H213.035" stroke="#2E3132" stroke-linecap="round" stroke-linejoin="round"/>
<path d="M221.615 168.459H219.409" stroke="#2E3132" stroke-linecap="round" stroke-linejoin="round"/>
<path d="M29.2992 142.825C29.2992 142.825 27.8169 155.639 26.0381 168.752C24.2594 181.865 27.5205 195.282 28.4098 196.474" stroke="#2E3132" stroke-linecap="round" stroke-linejoin="round"/>
<path d="M23.4355 168.764C23.7201 166.205 23.9573 164.589 23.9573 164.589" stroke="#2E3132" stroke-linecap="round" stroke-linejoin="round"/>
<path d="M27.8109 194.982C27.8109 194.982 22.4746 193.789 22.4746 184.248C22.4746 180.331 22.7236 176.317 23.0201 172.918" stroke="#2E3132" stroke-linecap="round" stroke-linejoin="round"/>
<path d="M72.5833 127.618C72.5833 127.618 73.7691 128.513 71.6939 138.65C69.6187 148.787 69.9151 163.695 72.5833 172.043" stroke="#2E3132" stroke-linecap="round" stroke-linejoin="round"/>
<path d="M75.5486 146.401C75.5486 146.401 72.5839 155.346 74.6592 167.868" stroke="#2E3132" stroke-linecap="round" stroke-linejoin="round"/>
<path d="M109.344 152.06C109.344 152.06 110.827 160.707 112.309 169.645C113.791 178.584 112.605 191.112 111.42 194.386C110.234 197.66 109.048 200.349 109.048 200.349" stroke="#2E3132" stroke-linecap="round" stroke-linejoin="round"/>
<path d="M114.929 195.967C113.607 200.045 111.965 195.281 111.965 195.281" stroke="#2E3132" stroke-linecap="round" stroke-linejoin="round"/>
<path d="M114.877 165.483C114.877 165.483 117.67 179.98 116.092 190.892" stroke="#2E3132" stroke-linecap="round" stroke-linejoin="round"/>
<path d="M108.752 170.253C108.752 170.253 111.717 176.515 109.048 182.478" stroke="#2E3132" stroke-linecap="round" stroke-linejoin="round"/>
<path d="M164.071 171.138C164.468 172.961 164.989 174.754 165.631 176.505" stroke="#2E3132" stroke-linecap="round" stroke-linejoin="round"/>
<path d="M166.52 140.142C164.638 146.147 163.445 152.349 162.962 158.627C162.785 161.803 162.962 164.99 163.49 168.126" stroke="#2E3132" stroke-linecap="round" stroke-linejoin="round"/>
<path d="M160.888 167.559C160.888 167.559 163.556 177.696 165.038 181.274C166.52 184.852 165.928 193.492 164.149 197.667" stroke="#2E3132" stroke-linecap="round" stroke-linejoin="round"/>
<path d="M200.897 144.613C200.897 144.613 206.827 155.347 201.194 172.932" stroke="#2E3132" stroke-linecap="round" stroke-linejoin="round"/>
<path d="M206.346 162.944C206.382 166.296 206.086 170.541 204.751 174.119C202.083 181.275 200.897 183.66 200.897 183.66" stroke="#2E3132" stroke-linecap="round" stroke-linejoin="round"/>
<path d="M205.938 157.137C205.938 157.137 206.133 158.419 206.252 160.393" stroke="#2E3132" stroke-linecap="round" stroke-linejoin="round"/>
</svg>
